<?xml version="1.0" encoding="UTF-8" standalone="no"?><svg xmlns="http://www.w3.org/2000/svg" xmlns:xlink="http://www.w3.org/1999/xlink" contentScriptType="application/ecmascript" contentStyleType="text/css" height="1624px" preserveAspectRatio="none" style="width:2050px;height:1624px;background:#FFFFFF;" version="1.1" viewBox="0 0 2050 1624" width="2050px" zoomAndPan="magnify"><defs><filter height="300%" id="fyls266be1r69" width="300%" x="-1" y="-1"><feGaussianBlur result="blurOut" stdDeviation="2.0"/><feColorMatrix in="blurOut" result="blurOut2" type="matrix" values="0 0 0 0 0 0 0 0 0 0 0 0 0 0 0 0 0 0 .4 0"/><feOffset dx="4.0" dy="4.0" in="blurOut2" result="blurOut3"/><feBlend in="SourceGraphic" in2="blurOut3" mode="normal"/></filter></defs><g><text fill="#000000" font-family="sans-serif" font-size="18" lengthAdjust="spacing" textLength="109" x="968" y="28.708">Trip to Xi'an</text><rect fill="#ADD8E6" height="1577.9766" style="stroke:#A80036;stroke-width:1.0;" width="133" x="88" y="40.9531"/><text fill="#000000" font-family="sans-serif" font-size="13" font-weight="bold" lengthAdjust="spacing" textLength="32" x="138.5" y="53.02">4.30</text><rect fill="#DDDDDD" height="1577.9766" style="stroke:#A80036;stroke-width:1.0;" width="945" x="223" y="40.9531"/><text fill="#000000" font-family="sans-serif" font-size="13" font-weight="bold" lengthAdjust="spacing" textLength="23" x="684" y="53.02">5.1</text><rect fill="#ADD8E6" height="1577.9766" style="stroke:#A80036;stroke-width:1.0;" width="235" x="1170" y="40.9531"/><text fill="#000000" font-family="sans-serif" font-size="13" font-weight="bold" lengthAdjust="spacing" textLength="23" x="1276" y="53.02">5.2</text><rect fill="#DDDDDD" height="1577.9766" style="stroke:#A80036;stroke-width:1.0;" width="254" x="1407" y="40.9531"/><text fill="#000000" font-family="sans-serif" font-size="13" font-weight="bold" lengthAdjust="spacing" textLength="23" x="1522.5" y="53.02">5.3</text><rect fill="#ADD8E6" height="1577.9766" style="stroke:#A80036;stroke-width:1.0;" width="381" x="1663" y="40.9531"/><text fill="#000000" font-family="sans-serif" font-size="13" font-weight="bold" lengthAdjust="spacing" textLength="23" x="1842" y="53.02">5.4</text><rect fill="#FFFFFF" filter="url(#fyls266be1r69)" height="30" style="stroke:#A80036;stroke-width:1.0;" width="10" x="118" y="139.5156"/><rect fill="#FFFFFF" filter="url(#fyls266be1r69)" height="30" style="stroke:#A80036;stroke-width:1.0;" width="10" x="187" y="1152.5703"/><rect fill="#FFFFFF" filter="url(#fyls266be1r69)" height="35.1328" style="stroke:#A80036;stroke-width:1.0;" width="10" x="268" y="227.7813"/><rect fill="#FFFFFF" filter="url(#fyls266be1r69)" height="30" style="stroke:#A80036;stroke-width:1.0;" width="10" x="411" y="299.0469"/><rect fill="#FFFFFF" filter="url(#fyls266be1r69)" height="30" style="stroke:#A80036;stroke-width:1.0;" width="10" x="559.5" y="358.1797"/><rect fill="#FFFFFF" filter="url(#fyls266be1r69)" height="598.7266" style="stroke:#A80036;stroke-width:1.0;" width="10" x="673" y="495.5781"/><rect fill="#FFFFFF" filter="url(#fyls266be1r69)" height="304.7969" style="stroke:#A80036;stroke-width:1.0;" width="10" x="678" y="789.5078"/><rect fill="#FFFFFF" filter="url(#fyls266be1r69)" height="216.5313" style="stroke:#A80036;stroke-width:1.0;" width="10" x="683" y="877.7734"/><rect fill="#FFFFFF" filter="url(#fyls266be1r69)" height="30" style="stroke:#A80036;stroke-width:1.0;" width="10" x="688" y="1064.3047"/><rect fill="#FFFFFF" filter="url(#fyls266be1r69)" height="284.7969" style="stroke:#A80036;stroke-width:1.0;" width="10" x="778.5" y="563.8438"/><rect fill="#FFFFFF" filter="url(#fyls266be1r69)" height="30" style="stroke:#A80036;stroke-width:1.0;" width="10" x="783.5" y="818.6406"/><rect fill="#FFFFFF" filter="url(#fyls266be1r69)" height="30" style="stroke:#A80036;stroke-width:1.0;" width="10" x="914" y="632.1094"/><rect fill="#FFFFFF" filter="url(#fyls266be1r69)" height="30" style="stroke:#A80036;stroke-width:1.0;" width="10" x="1082.5" y="691.2422"/><rect fill="#FFFFFF" filter="url(#fyls266be1r69)" height="30" style="stroke:#A80036;stroke-width:1.0;" width="10" x="1227.5" y="906.9063"/><rect fill="#FFFFFF" filter="url(#fyls266be1r69)" height="30" style="stroke:#A80036;stroke-width:1.0;" width="10" x="1346" y="966.0391"/><rect fill="#FFFFFF" filter="url(#fyls266be1r69)" height="30" style="stroke:#A80036;stroke-width:1.0;" width="10" x="1591.5" y="1211.7031"/><rect fill="#FFFFFF" filter="url(#fyls266be1r69)" height="30" style="stroke:#A80036;stroke-width:1.0;" width="10" x="1727" y="1309.9688"/><rect fill="#FFFFFF" filter="url(#fyls266be1r69)" height="30" style="stroke:#A80036;stroke-width:1.0;" width="10" x="1861" y="1393.1016"/><rect fill="#FFFFFF" filter="url(#fyls266be1r69)" height="68.2656" style="stroke:#A80036;stroke-width:1.0;" width="10" x="1982.5" y="1452.2344"/><line style="stroke:#A80036;stroke-width:1.0;stroke-dasharray:5.0,5.0;" x1="123" x2="123" y1="108.3828" y2="1567.6328"/><line style="stroke:#A80036;stroke-width:1.0;stroke-dasharray:5.0,5.0;" x1="192" x2="192" y1="108.3828" y2="1567.6328"/><line style="stroke:#A80036;stroke-width:1.0;stroke-dasharray:5.0,5.0;" x1="273" x2="273" y1="108.3828" y2="1567.6328"/><line style="stroke:#A80036;stroke-width:1.0;stroke-dasharray:5.0,5.0;" x1="416" x2="416" y1="108.3828" y2="1567.6328"/><line style="stroke:#A80036;stroke-width:1.0;stroke-dasharray:5.0,5.0;" x1="564" x2="564" y1="108.3828" y2="1567.6328"/><line style="stroke:#A80036;stroke-width:1.0;stroke-dasharray:5.0,5.0;" x1="678" x2="678" y1="108.3828" y2="1567.6328"/><line style="stroke:#A80036;stroke-width:1.0;stroke-dasharray:5.0,5.0;" x1="783" x2="783" y1="108.3828" y2="1567.6328"/><line style="stroke:#A80036;stroke-width:1.0;stroke-dasharray:5.0,5.0;" x1="919" x2="919" y1="108.3828" y2="1567.6328"/><line style="stroke:#A80036;stroke-width:1.0;stroke-dasharray:5.0,5.0;" x1="1087" x2="1087" y1="108.3828" y2="1567.6328"/><line style="stroke:#A80036;stroke-width:1.0;stroke-dasharray:5.0,5.0;" x1="1232" x2="1232" y1="108.3828" y2="1567.6328"/><line style="stroke:#A80036;stroke-width:1.0;stroke-dasharray:5.0,5.0;" x1="1351" x2="1351" y1="108.3828" y2="1567.6328"/><line style="stroke:#A80036;stroke-width:1.0;stroke-dasharray:5.0,5.0;" x1="1468" x2="1468" y1="108.3828" y2="1567.6328"/><line style="stroke:#A80036;stroke-width:1.0;stroke-dasharray:5.0,5.0;" x1="1596" x2="1596" y1="108.3828" y2="1567.6328"/><line style="stroke:#A80036;stroke-width:1.0;stroke-dasharray:5.0,5.0;" x1="1732" x2="1732" y1="108.3828" y2="1567.6328"/><line style="stroke:#A80036;stroke-width:1.0;stroke-dasharray:5.0,5.0;" x1="1866" x2="1866" y1="108.3828" y2="1567.6328"/><line style="stroke:#A80036;stroke-width:1.0;stroke-dasharray:5.0,5.0;" x1="1987" x2="1987" y1="108.3828" y2="1567.6328"/><rect fill="#FEFECE" filter="url(#fyls266be1r69)" height="30.2969" style="stroke:#A80036;stroke-width:1.5;" width="58" x="92" y="73.0859"/><text fill="#000000" font-family="sans-serif" font-size="14" lengthAdjust="spacing" textLength="44" x="99" y="93.0811">Tianjin</text><rect fill="#FEFECE" filter="url(#fyls266be1r69)" height="30.2969" style="stroke:#A80036;stroke-width:1.5;" width="58" x="92" y="1566.6328"/><text fill="#000000" font-family="sans-serif" font-size="14" lengthAdjust="spacing" textLength="44" x="99" y="1586.6279">Tianjin</text><rect fill="#FEFECE" filter="url(#fyls266be1r69)" height="30.2969" style="stroke:#A80036;stroke-width:1.5;" width="46" x="167" y="73.0859"/><text fill="#000000" font-family="sans-serif" font-size="14" lengthAdjust="spacing" textLength="32" x="174" y="93.0811">Xi'an</text><rect fill="#FEFECE" filter="url(#fyls266be1r69)" height="30.2969" style="stroke:#A80036;stroke-width:1.5;" width="46" x="167" y="1566.6328"/><text fill="#000000" font-family="sans-serif" font-size="14" lengthAdjust="spacing" textLength="32" x="174" y="1586.6279">Xi'an</text><text fill="#000000" font-family="sans-serif" font-size="14" lengthAdjust="spacing" textLength="86" x="227" y="105.0811">Spore Room</text><ellipse cx="273" cy="76.0859" fill="#FEFECE" filter="url(#fyls266be1r69)" rx="12" ry="12" style="stroke:#A80036;stroke-width:2.0;"/><polygon fill="#A80036" points="269,64.0859,275,59.0859,273,64.0859,275,69.0859,269,64.0859" style="stroke:#A80036;stroke-width:1.0;"/><text fill="#000000" font-family="sans-serif" font-size="14" lengthAdjust="spacing" textLength="86" x="227" y="1579.6279">Spore Room</text><ellipse cx="273" cy="1598.9297" fill="#FEFECE" filter="url(#fyls266be1r69)" rx="12" ry="12" style="stroke:#A80036;stroke-width:2.0;"/><polygon fill="#A80036" points="269,1586.9297,275,1581.9297,273,1586.9297,275,1591.9297,269,1586.9297" style="stroke:#A80036;stroke-width:1.0;"/><text fill="#000000" font-family="sans-serif" font-size="14" lengthAdjust="spacing" textLength="168" x="329" y="105.0811">Shaanxi History Museum</text><ellipse cx="416" cy="76.0859" fill="#FEFECE" filter="url(#fyls266be1r69)" rx="12" ry="12" style="stroke:#A80036;stroke-width:2.0;"/><line style="stroke:#A80036;stroke-width:2.0;" x1="404" x2="428" y1="90.0859" y2="90.0859"/><text fill="#000000" font-family="sans-serif" font-size="14" lengthAdjust="spacing" textLength="168" x="329" y="1579.6279">Shaanxi History Museum</text><ellipse cx="416" cy="1598.9297" fill="#FEFECE" filter="url(#fyls266be1r69)" rx="12" ry="12" style="stroke:#A80036;stroke-width:2.0;"/><line style="stroke:#A80036;stroke-width:2.0;" x1="404" x2="428" y1="1612.9297" y2="1612.9297"/><text fill="#000000" font-family="sans-serif" font-size="14" lengthAdjust="spacing" textLength="97" x="513" y="105.0811">Da-Yan Tower</text><ellipse cx="564.5" cy="76.0859" fill="#FEFECE" filter="url(#fyls266be1r69)" rx="12" ry="12" style="stroke:#A80036;stroke-width:2.0;"/><line style="stroke:#A80036;stroke-width:2.0;" x1="552.5" x2="576.5" y1="90.0859" y2="90.0859"/><text fill="#000000" font-family="sans-serif" font-size="14" lengthAdjust="spacing" textLength="97" x="513" y="1579.6279">Da-Yan Tower</text><ellipse cx="564.5" cy="1598.9297" fill="#FEFECE" filter="url(#fyls266be1r69)" rx="12" ry="12" style="stroke:#A80036;stroke-width:2.0;"/><line style="stroke:#A80036;stroke-width:2.0;" x1="552.5" x2="576.5" y1="1612.9297" y2="1612.9297"/><text fill="#000000" font-family="sans-serif" font-size="14" lengthAdjust="spacing" textLength="98" x="626" y="105.0811">E-sports room</text><ellipse cx="678" cy="76.0859" fill="#FEFECE" filter="url(#fyls266be1r69)" rx="12" ry="12" style="stroke:#A80036;stroke-width:2.0;"/><polygon fill="#A80036" points="674,64.0859,680,59.0859,678,64.0859,680,69.0859,674,64.0859" style="stroke:#A80036;stroke-width:1.0;"/><text fill="#000000" font-family="sans-serif" font-size="14" lengthAdjust="spacing" textLength="98" x="626" y="1579.6279">E-sports room</text><ellipse cx="678" cy="1598.9297" fill="#FEFECE" filter="url(#fyls266be1r69)" rx="12" ry="12" style="stroke:#A80036;stroke-width:2.0;"/><polygon fill="#A80036" points="674,1586.9297,680,1581.9297,678,1586.9297,680,1591.9297,674,1586.9297" style="stroke:#A80036;stroke-width:1.0;"/><text fill="#000000" font-family="sans-serif" font-size="14" lengthAdjust="spacing" textLength="81" x="740" y="105.0811">Hanfu Store</text><ellipse cx="783.5" cy="76.0859" fill="#FEFECE" filter="url(#fyls266be1r69)" rx="12" ry="12" style="stroke:#A80036;stroke-width:2.0;"/><line style="stroke:#A80036;stroke-width:2.0;" x1="771.5" x2="795.5" y1="90.0859" y2="90.0859"/><text fill="#000000" font-family="sans-serif" font-size="14" lengthAdjust="spacing" textLength="81" x="740" y="1579.6279">Hanfu Store</text><ellipse cx="783.5" cy="1598.9297" fill="#FEFECE" filter="url(#fyls266be1r69)" rx="12" ry="12" style="stroke:#A80036;stroke-width:2.0;"/><line style="stroke:#A80036;stroke-width:2.0;" x1="771.5" x2="795.5" y1="1612.9297" y2="1612.9297"/><text fill="#000000" font-family="sans-serif" font-size="14" lengthAdjust="spacing" textLength="158" x="837" y="105.0811">Datang Ever Bright City</text><ellipse cx="919" cy="76.0859" fill="#FEFECE" filter="url(#fyls266be1r69)" rx="12" ry="12" style="stroke:#A80036;stroke-width:2.0;"/><line style="stroke:#A80036;stroke-width:2.0;" x1="907" x2="931" y1="90.0859" y2="90.0859"/><text fill="#000000" font-family="sans-serif" font-size="14" lengthAdjust="spacing" textLength="158" x="837" y="1579.6279">Datang Ever Bright City</text><ellipse cx="919" cy="1598.9297" fill="#FEFECE" filter="url(#fyls266be1r69)" rx="12" ry="12" style="stroke:#A80036;stroke-width:2.0;"/><line style="stroke:#A80036;stroke-width:2.0;" x1="907" x2="931" y1="1612.9297" y2="1612.9297"/><text fill="#000000" font-family="sans-serif" font-size="14" lengthAdjust="spacing" textLength="147" x="1011" y="105.0811">Da Ci'en Temple Park</text><ellipse cx="1087.5" cy="76.0859" fill="#FEFECE" filter="url(#fyls266be1r69)" rx="12" ry="12" style="stroke:#A80036;stroke-width:2.0;"/><line style="stroke:#A80036;stroke-width:2.0;" x1="1075.5" x2="1099.5" y1="90.0859" y2="90.0859"/><text fill="#000000" font-family="sans-serif" font-size="14" lengthAdjust="spacing" textLength="147" x="1011" y="1579.6279">Da Ci'en Temple Park</text><ellipse cx="1087.5" cy="1598.9297" fill="#FEFECE" filter="url(#fyls266be1r69)" rx="12" ry="12" style="stroke:#A80036;stroke-width:2.0;"/><line style="stroke:#A80036;stroke-width:2.0;" x1="1075.5" x2="1099.5" y1="1612.9297" y2="1612.9297"/><text fill="#000000" font-family="sans-serif" font-size="14" lengthAdjust="spacing" textLength="111" x="1174" y="105.0811">Xi'an Food Stalls</text><ellipse cx="1232.5" cy="76.0859" fill="#FEFECE" filter="url(#fyls266be1r69)" rx="12" ry="12" style="stroke:#A80036;stroke-width:2.0;"/><line style="stroke:#A80036;stroke-width:2.0;" x1="1220.5" x2="1244.5" y1="90.0859" y2="90.0859"/><text fill="#000000" font-family="sans-serif" font-size="14" lengthAdjust="spacing" textLength="111" x="1174" y="1579.6279">Xi'an Food Stalls</text><ellipse cx="1232.5" cy="1598.9297" fill="#FEFECE" filter="url(#fyls266be1r69)" rx="12" ry="12" style="stroke:#A80036;stroke-width:2.0;"/><line style="stroke:#A80036;stroke-width:2.0;" x1="1220.5" x2="1244.5" y1="1612.9297" y2="1612.9297"/><text fill="#000000" font-family="sans-serif" font-size="14" lengthAdjust="spacing" textLength="94" x="1301" y="105.0811">Muslim Street</text><ellipse cx="1351" cy="76.0859" fill="#FEFECE" filter="url(#fyls266be1r69)" rx="12" ry="12" style="stroke:#A80036;stroke-width:2.0;"/><line style="stroke:#A80036;stroke-width:2.0;" x1="1339" x2="1363" y1="90.0859" y2="90.0859"/><text fill="#000000" font-family="sans-serif" font-size="14" lengthAdjust="spacing" textLength="94" x="1301" y="1579.6279">Muslim Street</text><ellipse cx="1351" cy="1598.9297" fill="#FEFECE" filter="url(#fyls266be1r69)" rx="12" ry="12" style="stroke:#A80036;stroke-width:2.0;"/><line style="stroke:#A80036;stroke-width:2.0;" x1="1339" x2="1363" y1="1612.9297" y2="1612.9297"/><text fill="#000000" font-family="sans-serif" font-size="14" lengthAdjust="spacing" textLength="109" x="1411" y="105.0811">Terracotta Army</text><ellipse cx="1468.5" cy="76.0859" fill="#FEFECE" filter="url(#fyls266be1r69)" rx="12" ry="12" style="stroke:#A80036;stroke-width:2.0;"/><line style="stroke:#A80036;stroke-width:2.0;" x1="1456.5" x2="1480.5" y1="90.0859" y2="90.0859"/><text fill="#000000" font-family="sans-serif" font-size="14" lengthAdjust="spacing" textLength="109" x="1411" y="1579.6279">Terracotta Army</text><ellipse cx="1468.5" cy="1598.9297" fill="#FEFECE" filter="url(#fyls266be1r69)" rx="12" ry="12" style="stroke:#A80036;stroke-width:2.0;"/><line style="stroke:#A80036;stroke-width:2.0;" x1="1456.5" x2="1480.5" y1="1612.9297" y2="1612.9297"/><text fill="#000000" font-family="sans-serif" font-size="14" lengthAdjust="spacing" textLength="115" x="1536" y="105.0811">Mount Hua Hotel</text><ellipse cx="1596.5" cy="76.0859" fill="#FEFECE" filter="url(#fyls266be1r69)" rx="12" ry="12" style="stroke:#A80036;stroke-width:2.0;"/><polygon fill="#A80036" points="1592.5,64.0859,1598.5,59.0859,1596.5,64.0859,1598.5,69.0859,1592.5,64.0859" style="stroke:#A80036;stroke-width:1.0;"/><text fill="#000000" font-family="sans-serif" font-size="14" lengthAdjust="spacing" textLength="115" x="1536" y="1579.6279">Mount Hua Hotel</text><ellipse cx="1596.5" cy="1598.9297" fill="#FEFECE" filter="url(#fyls266be1r69)" rx="12" ry="12" style="stroke:#A80036;stroke-width:2.0;"/><polygon fill="#A80036" points="1592.5,1586.9297,1598.5,1581.9297,1596.5,1586.9297,1598.5,1591.9297,1592.5,1586.9297" style="stroke:#A80036;stroke-width:1.0;"/><text fill="#000000" font-family="sans-serif" font-size="14" lengthAdjust="spacing" textLength="124" x="1667" y="105.0811">WuYunFeng Hotel</text><ellipse cx="1732" cy="76.0859" fill="#FEFECE" filter="url(#fyls266be1r69)" rx="12" ry="12" style="stroke:#A80036;stroke-width:2.0;"/><polygon fill="#A80036" points="1728,64.0859,1734,59.0859,1732,64.0859,1734,69.0859,1728,64.0859" style="stroke:#A80036;stroke-width:1.0;"/><text fill="#000000" font-family="sans-serif" font-size="14" lengthAdjust="spacing" textLength="124" x="1667" y="1579.6279">WuYunFeng Hotel</text><ellipse cx="1732" cy="1598.9297" fill="#FEFECE" filter="url(#fyls266be1r69)" rx="12" ry="12" style="stroke:#A80036;stroke-width:2.0;"/><polygon fill="#A80036" points="1728,1586.9297,1734,1581.9297,1732,1586.9297,1734,1591.9297,1728,1586.9297" style="stroke:#A80036;stroke-width:1.0;"/><text fill="#000000" font-family="sans-serif" font-size="14" lengthAdjust="spacing" textLength="112" x="1807" y="105.0811">Xifeng Cableway</text><ellipse cx="1866" cy="76.0859" fill="#FEFECE" filter="url(#fyls266be1r69)" rx="12" ry="12" style="stroke:#A80036;stroke-width:2.0;"/><line style="stroke:#A80036;stroke-width:2.0;" x1="1854" x2="1878" y1="90.0859" y2="90.0859"/><text fill="#000000" font-family="sans-serif" font-size="14" lengthAdjust="spacing" textLength="112" x="1807" y="1579.6279">Xifeng Cableway</text><ellipse cx="1866" cy="1598.9297" fill="#FEFECE" filter="url(#fyls266be1r69)" rx="12" ry="12" style="stroke:#A80036;stroke-width:2.0;"/><line style="stroke:#A80036;stroke-width:2.0;" x1="1854" x2="1878" y1="1612.9297" y2="1612.9297"/><text fill="#000000" font-family="sans-serif" font-size="14" lengthAdjust="spacing" textLength="99" x="1935" y="105.0811">Tourist Center</text><ellipse cx="1987.5" cy="76.0859" fill="#FEFECE" filter="url(#fyls266be1r69)" rx="12" ry="12" style="stroke:#A80036;stroke-width:2.0;"/><line style="stroke:#A80036;stroke-width:2.0;" x1="1975.5" x2="1999.5" y1="90.0859" y2="90.0859"/><text fill="#000000" font-family="sans-serif" font-size="14" lengthAdjust="spacing" textLength="99" x="1935" y="1579.6279">Tourist Center</text><ellipse cx="1987.5" cy="1598.9297" fill="#FEFECE" filter="url(#fyls266be1r69)" rx="12" ry="12" style="stroke:#A80036;stroke-width:2.0;"/><line style="stroke:#A80036;stroke-width:2.0;" x1="1975.5" x2="1999.5" y1="1612.9297" y2="1612.9297"/><rect fill="#FFFFFF" filter="url(#fyls266be1r69)" height="30" style="stroke:#A80036;stroke-width:1.0;" width="10" x="118" y="139.5156"/><rect fill="#FFFFFF" filter="url(#fyls266be1r69)" height="30" style="stroke:#A80036;stroke-width:1.0;" width="10" x="187" y="1152.5703"/><rect fill="#FFFFFF" filter="url(#fyls266be1r69)" height="35.1328" style="stroke:#A80036;stroke-width:1.0;" width="10" x="268" y="227.7813"/><rect fill="#FFFFFF" filter="url(#fyls266be1r69)" height="30" style="stroke:#A80036;stroke-width:1.0;" width="10" x="411" y="299.0469"/><rect fill="#FFFFFF" filter="url(#fyls266be1r69)" height="30" style="stroke:#A80036;stroke-width:1.0;" width="10" x="559.5" y="358.1797"/><rect fill="#FFFFFF" filter="url(#fyls266be1r69)" height="598.7266" style="stroke:#A80036;stroke-width:1.0;" width="10" x="673" y="495.5781"/><rect fill="#FFFFFF" filter="url(#fyls266be1r69)" height="304.7969" style="stroke:#A80036;stroke-width:1.0;" width="10" x="678" y="789.5078"/><rect fill="#FFFFFF" filter="url(#fyls266be1r69)" height="216.5313" style="stroke:#A80036;stroke-width:1.0;" width="10" x="683" y="877.7734"/><rect fill="#FFFFFF" filter="url(#fyls266be1r69)" height="30" style="stroke:#A80036;stroke-width:1.0;" width="10" x="688" y="1064.3047"/><rect fill="#FFFFFF" filter="url(#fyls266be1r69)" height="284.7969" style="stroke:#A80036;stroke-width:1.0;" width="10" x="778.5" y="563.8438"/><rect fill="#FFFFFF" filter="url(#fyls266be1r69)" height="30" style="stroke:#A80036;stroke-width:1.0;" width="10" x="783.5" y="818.6406"/><rect fill="#FFFFFF" filter="url(#fyls266be1r69)" height="30" style="stroke:#A80036;stroke-width:1.0;" width="10" x="914" y="632.1094"/><rect fill="#FFFFFF" filter="url(#fyls266be1r69)" height="30" style="stroke:#A80036;stroke-width:1.0;" width="10" x="1082.5" y="691.2422"/><rect fill="#FFFFFF" filter="url(#fyls266be1r69)" height="30" style="stroke:#A80036;stroke-width:1.0;" width="10" x="1227.5" y="906.9063"/><rect fill="#FFFFFF" filter="url(#fyls266be1r69)" height="30" style="stroke:#A80036;stroke-width:1.0;" width="10" x="1346" y="966.0391"/><rect fill="#FFFFFF" filter="url(#fyls266be1r69)" height="30" style="stroke:#A80036;stroke-width:1.0;" width="10" x="1591.5" y="1211.7031"/><rect fill="#FFFFFF" filter="url(#fyls266be1r69)" height="30" style="stroke:#A80036;stroke-width:1.0;" width="10" x="1727" y="1309.9688"/><rect fill="#FFFFFF" filter="url(#fyls266be1r69)" height="30" style="stroke:#A80036;stroke-width:1.0;" width="10" x="1861" y="1393.1016"/><rect fill="#FFFFFF" filter="url(#fyls266be1r69)" height="68.2656" style="stroke:#A80036;stroke-width:1.0;" width="10" x="1982.5" y="1452.2344"/><polygon fill="#A80036" points="106,135.5156,116,139.5156,106,143.5156,110,139.5156" style="stroke:#A80036;stroke-width:1.0;"/><line style="stroke:#A80036;stroke-width:1.0;" x1="0" x2="112" y1="139.5156" y2="139.5156"/><text fill="#000000" font-family="sans-serif" font-size="13" lengthAdjust="spacing" textLength="99" x="7" y="134.4497">High-speed Rail</text><polygon fill="#A80036" points="180,194.6484,190,198.6484,180,202.6484,184,198.6484" style="stroke:#A80036;stroke-width:1.0;"/><line style="stroke:#A80036;stroke-width:1.0;stroke-dasharray:2.0,2.0;" x1="123" x2="186" y1="198.6484" y2="198.6484"/><text fill="#008000" font-family="sans-serif" font-size="13" lengthAdjust="spacing" textLength="45" x="130" y="193.5825">aircraft</text><polygon fill="#A80036" points="256,223.7813,266,227.7813,256,231.7813,260,227.7813" style="stroke:#A80036;stroke-width:1.0;"/><line style="stroke:#A80036;stroke-width:1.0;" x1="192" x2="262" y1="227.7813" y2="227.7813"/><text fill="#000000" font-family="sans-serif" font-size="13" lengthAdjust="spacing" textLength="26" x="199" y="222.7153">DiDi</text><line style="stroke:#A80036;stroke-width:1.0;stroke-dasharray:2.0,2.0;" x1="278" x2="320" y1="261.9141" y2="261.9141"/><line style="stroke:#A80036;stroke-width:1.0;stroke-dasharray:2.0,2.0;" x1="320" x2="320" y1="261.9141" y2="274.9141"/><line style="stroke:#A80036;stroke-width:1.0;stroke-dasharray:2.0,2.0;" x1="273" x2="320" y1="274.9141" y2="274.9141"/><polygon fill="#A80036" points="283,270.9141,273,274.9141,283,278.9141,279,274.9141" style="stroke:#A80036;stroke-width:1.0;"/><text fill="#000000" font-family="sans-serif" font-size="13" lengthAdjust="spacing" textLength="40" x="285" y="256.8481">dinner</text><polygon fill="#A80036" points="399,295.0469,409,299.0469,399,299.0469" style="stroke:#A80036;stroke-width:1.0;"/><line style="stroke:#A80036;stroke-width:1.0;" x1="273" x2="410" y1="299.0469" y2="299.0469"/><text fill="#000000" font-family="sans-serif" font-size="13" lengthAdjust="spacing" textLength="47" x="280" y="293.981">subway</text><polygon fill="#A80036" points="547.5,354.1797,557.5,358.1797,547.5,362.1797,551.5,358.1797" style="stroke:#A80036;stroke-width:1.0;"/><line style="stroke:#A80036;stroke-width:1.0;" x1="416" x2="553.5" y1="358.1797" y2="358.1797"/><text fill="#000000" font-family="sans-serif" font-size="13" lengthAdjust="spacing" textLength="27" x="423" y="353.1138">walk</text><path d="M530,401.1797 L530,426.1797 L595,426.1797 L595,411.1797 L585,401.1797 L530,401.1797 " fill="#FBFB77" filter="url(#fyls266be1r69)" style="stroke:#A80036;stroke-width:1.0;"/><path d="M585,401.1797 L585,411.1797 L595,411.1797 L585,401.1797 " fill="#FBFB77" style="stroke:#A80036;stroke-width:1.0;"/><text fill="#000000" font-family="sans-serif" font-size="13" lengthAdjust="spacing" textLength="44" x="536" y="418.2466">Tickets</text><path d="M529,440.3125 L529,465.3125 L595,465.3125 L595,450.3125 L585,440.3125 L529,440.3125 " fill="#008000" filter="url(#fyls266be1r69)" style="stroke:#A80036;stroke-width:1.0;"/><path d="M585,440.3125 L585,450.3125 L595,450.3125 L585,440.3125 " fill="#008000" style="stroke:#A80036;stroke-width:1.0;"/><text fill="#000000" font-family="sans-serif" font-size="13" lengthAdjust="spacing" textLength="45" x="535" y="457.3794">explain</text><polygon fill="#A80036" points="661,491.5781,671,495.5781,661,499.5781,665,495.5781" style="stroke:#A80036;stroke-width:1.0;"/><line style="stroke:#A80036;stroke-width:1.0;" x1="564.5" x2="667" y1="495.5781" y2="495.5781"/><text fill="#000000" font-family="sans-serif" font-size="13" lengthAdjust="spacing" textLength="54" x="571.5" y="490.5122">Check in</text><path d="M642,508.5781 L642,533.5781 L709,533.5781 L709,518.5781 L699,508.5781 L642,508.5781 " fill="#FBFB77" filter="url(#fyls266be1r69)" style="stroke:#A80036;stroke-width:1.0;"/><path d="M699,508.5781 L699,518.5781 L709,518.5781 L699,508.5781 " fill="#FBFB77" style="stroke:#A80036;stroke-width:1.0;"/><text fill="#000000" font-family="sans-serif" font-size="13" lengthAdjust="spacing" textLength="46" x="648" y="525.645">lodging</text><polygon fill="#A80036" points="766.5,559.8438,776.5,563.8438,766.5,567.8438,770.5,563.8438" style="stroke:#A80036;stroke-width:1.0;"/><line style="stroke:#A80036;stroke-width:1.0;" x1="683" x2="772.5" y1="563.8438" y2="563.8438"/><text fill="#000000" font-family="sans-serif" font-size="13" lengthAdjust="spacing" textLength="46" x="690" y="558.7778">clothes</text><path d="M748,576.8438 L748,601.8438 L815,601.8438 L815,586.8438 L805,576.8438 L748,576.8438 " fill="#008000" filter="url(#fyls266be1r69)" style="stroke:#A80036;stroke-width:1.0;"/><path d="M805,576.8438 L805,586.8438 L815,586.8438 L805,576.8438 " fill="#008000" style="stroke:#A80036;stroke-width:1.0;"/><text fill="#000000" font-family="sans-serif" font-size="13" lengthAdjust="spacing" textLength="46" x="754" y="593.9106">clothes</text><polygon fill="#A80036" points="902,628.1094,912,632.1094,902,636.1094,906,632.1094" style="stroke:#A80036;stroke-width:1.0;"/><line style="stroke:#A80036;stroke-width:1.0;" x1="788.5" x2="908" y1="632.1094" y2="632.1094"/><text fill="#000000" font-family="sans-serif" font-size="13" lengthAdjust="spacing" textLength="26" x="795.5" y="627.0435">DiDi</text><polygon fill="#A80036" points="1070.5,687.2422,1080.5,691.2422,1070.5,695.2422,1074.5,691.2422" style="stroke:#A80036;stroke-width:1.0;"/><line style="stroke:#A80036;stroke-width:1.0;" x1="919" x2="1076.5" y1="691.2422" y2="691.2422"/><text fill="#000000" font-family="sans-serif" font-size="13" lengthAdjust="spacing" textLength="74" x="926" y="686.1763">photograph</text><path d="M1038,734.2422 L1038,759.2422 L1133,759.2422 L1133,744.2422 L1123,734.2422 L1038,734.2422 " fill="#008000" filter="url(#fyls266be1r69)" style="stroke:#A80036;stroke-width:1.0;"/><path d="M1123,734.2422 L1123,744.2422 L1133,744.2422 L1123,734.2422 " fill="#008000" style="stroke:#A80036;stroke-width:1.0;"/><text fill="#000000" font-family="sans-serif" font-size="13" lengthAdjust="spacing" textLength="74" x="1044" y="751.3091">photograph</text><polygon fill="#A80036" points="699,785.5078,689,789.5078,699,793.5078,695,789.5078" style="stroke:#A80036;stroke-width:1.0;"/><line style="stroke:#A80036;stroke-width:1.0;" x1="693" x2="1086.5" y1="789.5078" y2="789.5078"/><text fill="#000000" font-family="sans-serif" font-size="13" lengthAdjust="spacing" textLength="34" x="705" y="784.4419">sleep</text><polygon fill="#A80036" points="771.5,814.6406,781.5,818.6406,771.5,822.6406,775.5,818.6406" style="stroke:#A80036;stroke-width:1.0;"/><line style="stroke:#A80036;stroke-width:1.0;" x1="688" x2="777.5" y1="818.6406" y2="818.6406"/><text fill="#000000" font-family="sans-serif" font-size="13" lengthAdjust="spacing" textLength="60" x="695" y="813.5747">give back</text><polygon fill="#A80036" points="704,873.7734,694,877.7734,704,881.7734,700,877.7734" style="stroke:#A80036;stroke-width:1.0;"/><line style="stroke:#A80036;stroke-width:1.0;" x1="698" x2="782.5" y1="877.7734" y2="877.7734"/><text fill="#000000" font-family="sans-serif" font-size="13" lengthAdjust="spacing" textLength="67" x="710" y="872.7075">play game</text><polygon fill="#A80036" points="1215.5,902.9063,1225.5,906.9063,1215.5,906.9063" style="stroke:#A80036;stroke-width:1.0;"/><line style="stroke:#A80036;stroke-width:1.0;" x1="693" x2="1226.5" y1="906.9063" y2="906.9063"/><text fill="#000000" font-family="sans-serif" font-size="13" lengthAdjust="spacing" textLength="27" x="700" y="901.8403">walk</text><polygon fill="#A80036" points="1334,962.0391,1344,966.0391,1334,966.0391" style="stroke:#A80036;stroke-width:1.0;"/><line style="stroke:#A80036;stroke-width:1.0;" x1="1232.5" x2="1345" y1="966.0391" y2="966.0391"/><text fill="#000000" font-family="sans-serif" font-size="13" lengthAdjust="spacing" textLength="47" x="1239.5" y="960.9731">subway</text><path d="M1180,1009.0391 L1180,1034.0391 L1402,1034.0391 L1402,1019.0391 L1392,1009.0391 L1180,1009.0391 " fill="#FBFB77" filter="url(#fyls266be1r69)" style="stroke:#A80036;stroke-width:1.0;"/><path d="M1392,1009.0391 L1392,1019.0391 L1402,1019.0391 L1392,1009.0391 " fill="#FBFB77" style="stroke:#A80036;stroke-width:1.0;"/><text fill="#000000" font-family="sans-serif" font-size="13" lengthAdjust="spacing" textLength="40" x="1264.5" y="1026.106">eating</text><polygon fill="#A80036" points="709,1060.3047,699,1064.3047,709,1064.3047" style="stroke:#A80036;stroke-width:1.0;"/><line style="stroke:#A80036;stroke-width:1.0;" x1="698" x2="1350" y1="1064.3047" y2="1064.3047"/><text fill="#000000" font-family="sans-serif" font-size="13" lengthAdjust="spacing" textLength="47" x="715" y="1059.2388">subway</text><polygon fill="#A80036" points="1456.5,1119.4375,1466.5,1123.4375,1456.5,1127.4375,1460.5,1123.4375" style="stroke:#A80036;stroke-width:1.0;"/><line style="stroke:#A80036;stroke-width:1.0;stroke-dasharray:2.0,2.0;" x1="678" x2="1462.5" y1="1123.4375" y2="1123.4375"/><text fill="#008000" font-family="sans-serif" font-size="13" lengthAdjust="spacing" textLength="26" x="685" y="1118.3716">DiDi</text><polygon fill="#A80036" points="208,1148.5703,198,1152.5703,208,1156.5703,204,1152.5703" style="stroke:#A80036;stroke-width:1.0;"/><line style="stroke:#A80036;stroke-width:1.0;" x1="202" x2="1467.5" y1="1152.5703" y2="1152.5703"/><text fill="#000000" font-family="sans-serif" font-size="13" lengthAdjust="spacing" textLength="26" x="214" y="1147.5044">DiDi</text><polygon fill="#A80036" points="1579.5,1207.7031,1589.5,1211.7031,1579.5,1215.7031,1583.5,1211.7031" style="stroke:#A80036;stroke-width:1.0;"/><line style="stroke:#A80036;stroke-width:1.0;" x1="192" x2="1585.5" y1="1211.7031" y2="1211.7031"/><text fill="#000000" font-family="sans-serif" font-size="13" lengthAdjust="spacing" textLength="99" x="199" y="1206.6372">High-speed Rail</text><path d="M1561,1254.7031 L1561,1279.7031 L1628,1279.7031 L1628,1264.7031 L1618,1254.7031 L1561,1254.7031 " fill="#FBFB77" filter="url(#fyls266be1r69)" style="stroke:#A80036;stroke-width:1.0;"/><path d="M1618,1254.7031 L1618,1264.7031 L1628,1264.7031 L1618,1254.7031 " fill="#FBFB77" style="stroke:#A80036;stroke-width:1.0;"/><text fill="#000000" font-family="sans-serif" font-size="13" lengthAdjust="spacing" textLength="46" x="1567" y="1271.77">lodging</text><polygon fill="#A80036" points="1715,1305.9688,1725,1309.9688,1715,1313.9688,1719,1309.9688" style="stroke:#A80036;stroke-width:1.0;"/><line style="stroke:#A80036;stroke-width:1.0;" x1="1596.5" x2="1721" y1="1309.9688" y2="1309.9688"/><text fill="#000000" font-family="sans-serif" font-size="13" lengthAdjust="spacing" textLength="53" x="1603.5" y="1304.9028">alpinism</text><path d="M1696,1352.9688 L1696,1377.9688 L1763,1377.9688 L1763,1362.9688 L1753,1352.9688 L1696,1352.9688 " fill="#FBFB77" filter="url(#fyls266be1r69)" style="stroke:#A80036;stroke-width:1.0;"/><path d="M1753,1352.9688 L1753,1362.9688 L1763,1362.9688 L1753,1352.9688 " fill="#FBFB77" style="stroke:#A80036;stroke-width:1.0;"/><text fill="#000000" font-family="sans-serif" font-size="13" lengthAdjust="spacing" textLength="46" x="1702" y="1370.0356">lodging</text><polygon fill="#A80036" points="1849,1389.1016,1859,1393.1016,1849,1397.1016,1853,1393.1016" style="stroke:#A80036;stroke-width:1.0;"/><line style="stroke:#A80036;stroke-width:1.0;" x1="1732" x2="1855" y1="1393.1016" y2="1393.1016"/><polygon fill="#A80036" points="1970.5,1448.2344,1980.5,1452.2344,1970.5,1456.2344,1974.5,1452.2344" style="stroke:#A80036;stroke-width:1.0;"/><line style="stroke:#A80036;stroke-width:1.0;" x1="1866" x2="1976.5" y1="1452.2344" y2="1452.2344"/><text fill="#000000" font-family="sans-serif" font-size="13" lengthAdjust="spacing" textLength="23" x="1873" y="1447.1685">taxi</text><path d="M1955,1465.2344 L1955,1490.2344 L2016,1490.2344 L2016,1475.2344 L2006,1465.2344 L1955,1465.2344 " fill="#FBFB77" filter="url(#fyls266be1r69)" style="stroke:#A80036;stroke-width:1.0;"/><path d="M2006,1465.2344 L2006,1475.2344 L2016,1475.2344 L2006,1465.2344 " fill="#FBFB77" style="stroke:#A80036;stroke-width:1.0;"/><text fill="#000000" font-family="sans-serif" font-size="13" lengthAdjust="spacing" textLength="40" x="1961" y="1482.3013">eating</text><polygon fill="#A80036" points="203,1516.5,193,1520.5,203,1524.5,199,1520.5" style="stroke:#A80036;stroke-width:1.0;"/><line style="stroke:#A80036;stroke-width:1.0;stroke-dasharray:2.0,2.0;" x1="197" x2="1986.5" y1="1520.5" y2="1520.5"/><text fill="#000000" font-family="sans-serif" font-size="13" lengthAdjust="spacing" textLength="23" x="209" y="1515.4341">taxi</text><polygon fill="#A80036" points="2033,1545.6328,2043,1549.6328,2033,1553.6328,2037,1549.6328" style="stroke:#A80036;stroke-width:1.0;"/><line style="stroke:#A80036;stroke-width:1.0;" x1="197" x2="2039" y1="1549.6328" y2="1549.6328"/><text fill="#000000" font-family="sans-serif" font-size="13" lengthAdjust="spacing" textLength="99" x="204" y="1544.5669">High-speed Rail</text><!--MD5=[e4e562c8e3ccf15662a85c0f5cc1a51d]
@startuml
title Trip to Xi'an
hide unlinked
autoactivate on
box "4.30" #LightBLue
    participant tj as "Tianjin"
    participant xa as "Xi'an"
end box
box "5.1"
    control bzf as "Spore Room"
    entity museum as "Shaanxi History Museum"
    entity tower as "Da-Yan Tower"
    control game as "E-sports room"
    entity hf as "Hanfu Store"
    entity city as "Datang Ever Bright City"
    entity park as "Da Ci'en Temple Park"
end box
box "5.2" #LightBLue
    entity restaurant as "Xi'an Food Stalls"
    entity street as "Muslim Street"
end box
box "5.3"
    entity qsh as "Terracotta Army"
    control hotel as "Mount Hua Hotel"
end box
box "5.4" #LightBLue
    entity mountain as "Mount Hua"
    control wyf as "WuYunFeng Hotel"
    entity cableway as "Xifeng Cableway"
    entity center as "Tourist Center"
end box
box "5.5"
end box

->tj : High-speed Rail
deactivate tj
tj- ->xa : <color #green>aircraft</color>
deactivate xa
xa -> bzf : DiDi
bzf- ->bzf:dinner
deactivate bzf
bzf-\museum: subway
deactivate bzf
deactivate museum
museum->tower: walk
note over tower:Tickets
note over tower #green:explain
deactivate tower
tower->game:Check in
note over game:lodging
game->hf:clothes
note over hf #green:clothes
hf->city:DiDi
deactivate city
city->park:photograph
note over park #green:photograph
deactivate park
park -> game : sleep
game->hf :give back
deactivate hf
deactivate hf
hf->game:play game
game-\restaurant: walk
deactivate restaurant
restaurant-\street: subway
note over restaurant,street: eating
deactivate street
street-\game:subway
deactivate game
deactivate game
deactivate game
deactivate game
game - -> qsh : <color #green>DiDi
qsh->xa:DiDi
deactivate xa
xa -> hotel : High-speed Rail
note over hotel: lodging
deactivate hotel
hotel->wyf: alpinism
note over wyf: lodging
deactivate wyf
wyf->cableway
deactivate cableway
cableway->center:taxi
note over center: eating
center- ->xa:taxi
deactivate xa
xa-> : High-speed Rail
@enduml

PlantUML version 1.2021.6(Fri May 14 15:09:51 CST 2021)
(GPL source distribution)
Java Runtime: OpenJDK Runtime Environment
JVM: OpenJDK 64-Bit Server VM
Default Encoding: UTF-8
Language: en
Country: US
--></g></svg>